<?xml version="1.0" encoding="UTF-8"?>
<svg xmlns="http://www.w3.org/2000/svg" version="1.1" viewBox="0 0 335.5 296.1">
  <defs>
    <style>
      .cls-1 {
        stroke: #b3a75e;
      }

      .cls-1, .cls-2, .cls-3, .cls-4, .cls-5, .cls-6, .cls-7, .cls-8, .cls-9, .cls-10, .cls-11, .cls-12 {
        fill: none;
      }

      .cls-1, .cls-2, .cls-3, .cls-4, .cls-5, .cls-6, .cls-7, .cls-8, .cls-9, .cls-12 {
        stroke-width: .5px;
      }

      .cls-13 {
        fill: #b7e6d7;
      }

      .cls-13, .cls-14, .cls-15, .cls-16, .cls-17, .cls-18, .cls-19, .cls-20, .cls-21, .cls-22 {
        opacity: .7;
      }

      .cls-23 {
        font-family: Arial-BoldMT, Arial;
        font-size: 7.1px;
        font-weight: 700;
      }

      .cls-14 {
        fill: #c6c9d1;
      }

      .cls-2 {
        stroke: #8b8d92;
      }

      .cls-15 {
        fill: #3874a0;
      }

      .cls-24 {
        isolation: isolate;
      }

      .cls-16 {
        fill: #85dae9;
      }

      .cls-25 {
        font-size: 11.6px;
      }

      .cls-25, .cls-26, .cls-27, .cls-28, .cls-29 {
        font-family: ArialMT, Arial;
      }

      .cls-17 {
        fill: #936;
      }

      .cls-3 {
        stroke: #b3b300;
      }

      .cls-18 {
        fill: lime;
      }

      .cls-4 {
        stroke: #ac6142;
      }

      .cls-19 {
        fill: #ffef86;
      }

      .cls-5 {
        stroke: #5d99a3;
      }

      .cls-26 {
        font-size: 5.6px;
      }

      .cls-26, .cls-27, .cls-28 {
        fill: #1b1b1f;
      }

      .cls-27 {
        font-size: 5.6px;
      }

      .cls-28 {
        font-size: 5.6px;
      }

      .cls-6 {
        stroke: #80a197;
      }

      .cls-20 {
        fill: #ff0;
      }

      .cls-29 {
        font-size: 8.2px;
      }

      .cls-21 {
        fill: #b4abac;
      }

      .cls-7 {
        stroke: #275170;
      }

      .cls-22 {
        fill: #f58a5e;
      }

      .cls-8 {
        stroke: #6b2447;
      }

      .cls-9 {
        stroke: #7e7878;
      }

      .cls-10 {
        stroke: gray;
        stroke-width: 2px;
      }

      .cls-11 {
        stroke: #b9b9bd;
        stroke-width: .5px;
      }

      .cls-12 {
        stroke: #00b300;
      }
    </style>
  </defs>
  <!-- Generator: Adobe Illustrator 28.7.8, SVG Export Plug-In . SVG Version: 1.2.0 Build 200)  -->
  <g>
    <g id="Layer_1">
      <g class="cls-24">
        <text class="cls-25" transform="translate(119.4 147.6)"><tspan x="0" y="0">pSF-aTubCaud</tspan></text>
        <text class="cls-29" transform="translate(119.7 159.3)"><tspan x="0" y="0">4058 bp without insert</tspan></text>
        <circle class="cls-10" cx="157.2" cy="147.6" r="138.3"/>
        <path class="cls-17" d="M198.4,259.3c-36.8,13.6-77.8,8.2-109.9-14.4l-2.3-5.8,6.1.4c30.2,21.3,69,26.4,103.8,13.6l2.3,6.2Z"/>
        <path class="cls-8" d="M198.4,259.3c-36.8,13.6-77.8,8.2-109.9-14.4l-2.3-5.8,6.1.4c30.2,21.3,69,26.4,103.8,13.6l2.3,6.2Z"/>
        <text class="cls-27" transform="translate(133 262.6) rotate(11.1)"><tspan x="0" y="0">A</tspan></text>
        <text class="cls-27" transform="translate(136 263.2) rotate(9.6)"><tspan x="0" y="0">m</tspan></text>
        <text class="cls-26" transform="translate(139 263.7) rotate(8.2)"><tspan x="0" y="0">p</tspan></text>
        <text class="cls-28" transform="translate(142 264.2) rotate(6.7)"><tspan x="0" y="0">R</tspan></text>
        <path class="cls-16" d="M66.3,70.7c20.9-24.7,51-39.8,83.3-41.9l.4,6.6c-30.5,1.9-58.9,16.2-78.7,39.6l-5-4.3Z"/>
        <path class="cls-5" d="M66.3,70.7c20.9-24.7,51-39.8,83.3-41.9l.4,6.6c-30.5,1.9-58.9,16.2-78.7,39.6l-5-4.3Z"/>
        <path class="cls-20" d="M67,225.3c-16.9-19.7-27-44.3-28.6-70.2l3.1-5.4,3.5,5c1.5,24.5,11,47.7,27,66.3l-5,4.3Z"/>
        <path class="cls-3" d="M67,225.3c-16.9-19.7-27-44.3-28.6-70.2l3.1-5.4,3.5,5c1.5,24.5,11,47.7,27,66.3l-5,4.3Z"/>
        <text class="cls-27" transform="translate(45.8 185) rotate(70.7)"><tspan x="0" y="0">o</tspan></text>
        <text class="cls-27" transform="translate(46.8 187.9) rotate(69.2)"><tspan x="0" y="0">r</tspan></text>
        <text class="cls-27" transform="translate(47.9 190.7) rotate(67.7)"><tspan x="0" y="0">i</tspan></text>
        <path class="cls-20" d="M253.5,203.7c-8.6,14.7-20.4,27.3-34.6,36.7h-6.2s2.6-5.5,2.6-5.5c13.3-8.9,24.5-20.7,32.5-34.5l5.7,3.3Z"/>
        <path class="cls-3" d="M253.5,203.7c-8.6,14.7-20.4,27.3-34.6,36.7h-6.2s2.6-5.5,2.6-5.5c13.3-8.9,24.5-20.7,32.5-34.5l5.7,3.3Z"/>
        <text class="cls-27" transform="translate(228.3 231.4) rotate(-41.1)"><tspan x="0" y="0">f</tspan></text>
        <text class="cls-27" transform="translate(230.6 229.4) rotate(-42.7)"><tspan x="0" y="0">1</tspan></text>
        <text class="cls-28" transform="translate(232.8 227.4) rotate(-44.3)"><tspan x="0" y="0"> </tspan></text>
        <text class="cls-27" transform="translate(235 225.2) rotate(-45.9)"><tspan x="0" y="0">o</tspan></text>
        <text class="cls-27" transform="translate(237.1 223.1) rotate(-47.5)"><tspan x="0" y="0">r</tspan></text>
        <text class="cls-27" transform="translate(239.2 220.8) rotate(-49)"><tspan x="0" y="0">i</tspan></text>
        <path class="cls-18" d="M272.6,176.8c-3.5,14-9.6,27.2-17.8,39l-5.4-3.8c7.8-11.2,13.5-23.7,16.8-36.9l6.4,1.6Z"/>
        <path class="cls-12" d="M272.6,176.8c-3.5,14-9.6,27.2-17.8,39l-5.4-3.8c7.8-11.2,13.5-23.7,16.8-36.9l6.4,1.6Z"/>
        <path class="cls-16" d="M276,154.2c-.4,7.6-1.6,15.2-3.4,22.5l-6.4-1.6c1.8-7,2.8-14.1,3.3-21.3l6.6.4Z"/>
        <path class="cls-5" d="M276,154.2c-.4,7.6-1.6,15.2-3.4,22.5l-6.4-1.6c1.8-7,2.8-14.1,3.3-21.3l6.6.4Z"/>
        <path class="cls-17" d="M262.2,184.8c-1.7,4.7-3.6,9.3-5.9,13.7l-5.4,3.1-.4-6.1c2.1-4.2,4-8.5,5.6-12.9l6.2,2.2Z"/>
        <path class="cls-8" d="M262.2,184.8c-1.7,4.7-3.6,9.3-5.9,13.7l-5.4,3.1-.4-6.1c2.1-4.2,4-8.5,5.6-12.9l6.2,2.2Z"/>
        <path class="cls-18" d="M54.7,87.2c3.4-5.8,7.3-11.3,11.7-16.4l5,4.3c-4.1,4.9-7.8,10-11,15.5l-5.7-3.3Z"/>
        <path class="cls-12" d="M54.7,87.2c3.4-5.8,7.3-11.3,11.7-16.4l5,4.3c-4.1,4.9-7.8,10-11,15.5l-5.7-3.3Z"/>
        <path class="cls-13" d="M211.9,253.4c-2.8,1.4-5.6,2.8-8.5,4l-6.1-1.1,3.6-4.9c2.7-1.1,5.4-2.4,8-3.7l3,5.8Z"/>
        <path class="cls-6" d="M211.9,253.4c-2.8,1.4-5.6,2.8-8.5,4l-6.1-1.1,3.6-4.9c2.7-1.1,5.4-2.4,8-3.7l3,5.8Z"/>
        <path class="cls-22" d="M269.6,145.6l3.1-5.3,3.5,5.1c0,2.9,0,5.9-.2,8.8l-6.6-.4c.2-2.8.2-5.5.2-8.3Z"/>
        <path class="cls-4" d="M269.6,145.6l3.1-5.3,3.5,5.1c0,2.9,0,5.9-.2,8.8l-6.6-.4c.2-2.8.2-5.5.2-8.3Z"/>
        <path class="cls-17" d="M40.4,124.4c.5-2.5,1.1-5,1.7-7.5l4.6-4.2,1.7,5.9c-.6,2.3-1.2,4.7-1.6,7.1l-6.5-1.3Z"/>
        <path class="cls-8" d="M40.4,124.4c.5-2.5,1.1-5,1.7-7.5l4.6-4.2,1.7,5.9c-.6,2.3-1.2,4.7-1.6,7.1l-6.5-1.3Z"/>
        <polygon class="cls-21" points="263.8 180.1 259.2 183.5 257.5 178.2 263.8 180.1"/>
        <polygon class="cls-9" points="263.8 180.1 259.2 183.5 257.5 178.2 263.8 180.1"/>
        <polygon class="cls-13" points="45.9 105.5 50.5 102.7 52 107.8 45.9 105.5"/>
        <polygon class="cls-6" points="45.9 105.5 50.5 102.7 52 107.8 45.9 105.5"/>
        <polygon class="cls-15" points="44.2 110.2 48.3 108.4 50.4 112.3 44.2 110.2"/>
        <polygon class="cls-7" points="44.2 110.2 48.3 108.4 50.4 112.3 44.2 110.2"/>
        <polygon class="cls-13" points="51.1 93.7 55.2 92.9 57 96.7 51.1 93.7"/>
        <polygon class="cls-6" points="51.1 93.7 55.2 92.9 57 96.7 51.1 93.7"/>
        <polygon class="cls-15" points="47.9 100.5 51.8 99.7 53.9 103.1 47.9 100.5"/>
        <polygon class="cls-7" points="47.9 100.5 51.8 99.7 53.9 103.1 47.9 100.5"/>
        <path class="cls-14" d="M283.6,139.6c3.3,51.4-24.9,99.6-71.2,122-46.3,22.4-101.6,14.6-139.8-19.9-38.3-34.4-51.9-88.6-34.5-137C55.4,56.4,100.4,23.3,151.8,21.1l5.3,3.2-5.1,3.4c-48.7,2.1-91.4,33.4-107.9,79.3-16.5,45.9-3.6,97.2,32.7,129.9,36.3,32.6,88.7,40.1,132.6,18.8,43.9-21.2,70.6-67,67.5-115.6l6.6-.4Z"/>
        <path class="cls-2" d="M283.6,139.6c3.3,51.4-24.9,99.6-71.2,122-46.3,22.4-101.6,14.6-139.8-19.9-38.3-34.4-51.9-88.6-34.5-137C55.4,56.4,100.4,23.3,151.8,21.1l5.3,3.2-5.1,3.4c-48.7,2.1-91.4,33.4-107.9,79.3-16.5,45.9-3.6,97.2,32.7,129.9,36.3,32.6,88.7,40.1,132.6,18.8,43.9-21.2,70.6-67,67.5-115.6l6.6-.4Z"/>
        <text class="cls-27" transform="translate(55.9 221) rotate(53.4)"><tspan x="0" y="0">V</tspan></text>
        <text class="cls-27" transform="translate(57.7 223.5) rotate(52)"><tspan x="0" y="0">e</tspan></text>
        <text class="cls-28" transform="translate(59.6 225.9) rotate(50.6)"><tspan x="0" y="0">c</tspan></text>
        <text class="cls-27" transform="translate(61.5 228.2) rotate(49.2)"><tspan x="0" y="0">t</tspan></text>
        <text class="cls-27" transform="translate(63.5 230.5) rotate(47.8)"><tspan x="0" y="0">o</tspan></text>
        <text class="cls-27" transform="translate(65.5 232.8) rotate(46.4)"><tspan x="0" y="0">r</tspan></text>
        <text class="cls-28" transform="translate(67.6 235) rotate(45)"><tspan x="0" y="0"> </tspan></text>
        <text class="cls-27" transform="translate(69.8 237.1) rotate(43.6)"><tspan x="0" y="0">B</tspan></text>
        <text class="cls-27" transform="translate(72 239.2) rotate(42.2)"><tspan x="0" y="0">a</tspan></text>
        <text class="cls-27" transform="translate(74.2 241.3) rotate(40.8)"><tspan x="0" y="0">c</tspan></text>
        <text class="cls-27" transform="translate(76.5 243.3) rotate(39.5)"><tspan x="0" y="0">k</tspan></text>
        <text class="cls-27" transform="translate(78.9 245.2) rotate(38.1)"><tspan x="0" y="0">b</tspan></text>
        <text class="cls-28" transform="translate(81.3 247.1) rotate(36.7)"><tspan x="0" y="0">o</tspan></text>
        <text class="cls-27" transform="translate(83.7 248.9) rotate(35.3)"><tspan x="0" y="0">n</tspan></text>
        <text class="cls-28" transform="translate(86.2 250.6) rotate(33.9)"><tspan x="0" y="0">e</tspan></text>
        <path class="cls-22" d="M155.1,35.2l-5.3-3.1,5.1-3.5c.7,0,1.5,0,2.2,0v6.6c-.7,0-1.4,0-2.1,0Z"/>
        <path class="cls-4" d="M155.1,35.2l-5.3-3.1,5.1-3.5c.7,0,1.5,0,2.2,0v6.6c-.7,0-1.4,0-2.1,0Z"/>
        <path class="cls-19" d="M157.2,13.4c68.8,0,126.4,52,133.5,120.4l-2.8,5.5-3.7-4.8c-6.7-65.1-61.5-114.5-127-114.5v-6.6Z"/>
        <path class="cls-1" d="M157.2,13.4c68.8,0,126.4,52,133.5,120.4l-2.8,5.5-3.7-4.8c-6.7-65.1-61.5-114.5-127-114.5v-6.6Z"/>
        <text class="cls-27" transform="translate(238.3 47.8) rotate(39.8)"><tspan x="0" y="0">i</tspan></text>
        <text class="cls-27" transform="translate(240.7 49.7) rotate(41.1)"><tspan x="0" y="0">n</tspan></text>
        <text class="cls-27" transform="translate(242.9 51.7) rotate(42.5)"><tspan x="0" y="0">s</tspan></text>
        <text class="cls-27" transform="translate(245.2 53.8) rotate(43.8)"><tspan x="0" y="0">e</tspan></text>
        <text class="cls-27" transform="translate(247.4 55.9) rotate(45.2)"><tspan x="0" y="0">r</tspan></text>
        <text class="cls-27" transform="translate(249.5 58) rotate(46.5)"><tspan x="0" y="0">t</tspan></text>
        <line x1="307.7" y1="190.6" x2="293.9" y2="189.1"/>
        <line class="cls-11" x1="307.7" y1="190.6" x2="293.9" y2="189.1"/>
        <line x1="293.9" y1="189.1" x2="290.5" y2="188.1"/>
        <line class="cls-11" x1="293.9" y1="189.1" x2="290.5" y2="188.1"/>
        <text class="cls-23" transform="translate(310.2 193.2)"><tspan x="0" y="0">ApaI</tspan></text>
        <line x1="214.8" y1="278.3" x2="213.4" y2="275.1"/>
        <line x1="22.3" y1="63.5" x2="32.5" y2="78"/>
        <line class="cls-11" x1="22.3" y1="63.5" x2="32.5" y2="78"/>
        <line x1="32.5" y1="78" x2="35.6" y2="79.7"/>
        <line class="cls-11" x1="32.5" y1="78" x2="35.6" y2="79.7"/>
        <text class="cls-23" transform="translate(6 64.1)"><tspan x="0" y="0">ApaI</tspan></text>
        <text/>
      </g>
    </g>
  </g>
</svg>